<?xml version="1.0" encoding="utf-8" standalone="no"?>
<!DOCTYPE svg PUBLIC "-//W3C//DTD SVG 1.1//EN"
  "http://www.w3.org/Graphics/SVG/1.1/DTD/svg11.dtd">
<svg xmlns:xlink="http://www.w3.org/1999/xlink" width="730.323437pt" height="415.593635pt" viewBox="0 0 730.323437 415.593635" xmlns="http://www.w3.org/2000/svg" version="1.1">
 <metadata>
  <rdf:RDF xmlns:dc="http://purl.org/dc/elements/1.1/" xmlns:cc="http://creativecommons.org/ns#" xmlns:rdf="http://www.w3.org/1999/02/22-rdf-syntax-ns#">
   <cc:Work>
    <dc:type rdf:resource="http://purl.org/dc/dcmitype/StillImage"/>
    <dc:date>2025-02-27T16:22:41.235022</dc:date>
    <dc:format>image/svg+xml</dc:format>
    <dc:creator>
     <cc:Agent>
      <dc:title>Matplotlib v3.7.2, https://matplotlib.org/</dc:title>
     </cc:Agent>
    </dc:creator>
   </cc:Work>
  </rdf:RDF>
 </metadata>
 <defs>
  <style type="text/css">*{stroke-linejoin: round; stroke-linecap: butt}</style>
 </defs>
 <g id="figure_1">
  <g id="patch_1">
   <path d="M 0 415.593635 
L 730.323437 415.593635 
L 730.323437 0 
L 0 0 
z
" style="fill: #ffffff"/>
  </g>
  <g id="axes_1">
   <g id="patch_2">
    <path d="M 53.523438 354.958125 
L 723.123438 354.958125 
L 723.123438 22.318125 
L 53.523438 22.318125 
z
" style="fill: #ffffff"/>
   </g>
   <g id="matplotlib.axis_1">
    <g id="xtick_1">
     <g id="line2d_1">
      <path d="M 81.423437 354.958125 
L 81.423437 22.318125 
" clip-path="url(#pcd06bef9e9)" style="fill: none; stroke: #b0b0b0; stroke-width: 0.8; stroke-linecap: square"/>
     </g>
     <g id="line2d_2">
      <defs>
       <path id="m264666f1da" d="M 0 0 
L 0 3.5 
" style="stroke: #000000; stroke-width: 0.8"/>
      </defs>
      <g>
       <use xlink:href="#m264666f1da" x="81.423437" y="354.958125" style="stroke: #000000; stroke-width: 0.8"/>
      </g>
     </g>
     <g id="text_1">
      <!-- Jan -->
      <g transform="translate(73.965339 381.779212) rotate(-45) scale(0.1 -0.1)">
       <defs>
        <path id="DejaVuSans-4a" d="M 628 4666 
L 1259 4666 
L 1259 325 
Q 1259 -519 939 -900 
Q 619 -1281 -91 -1281 
L -331 -1281 
L -331 -750 
L -134 -750 
Q 284 -750 456 -515 
Q 628 -281 628 325 
L 628 4666 
z
" transform="scale(0.015625)"/>
        <path id="DejaVuSans-61" d="M 2194 1759 
Q 1497 1759 1228 1600 
Q 959 1441 959 1056 
Q 959 750 1161 570 
Q 1363 391 1709 391 
Q 2188 391 2477 730 
Q 2766 1069 2766 1631 
L 2766 1759 
L 2194 1759 
z
M 3341 1997 
L 3341 0 
L 2766 0 
L 2766 531 
Q 2569 213 2275 61 
Q 1981 -91 1556 -91 
Q 1019 -91 701 211 
Q 384 513 384 1019 
Q 384 1609 779 1909 
Q 1175 2209 1959 2209 
L 2766 2209 
L 2766 2266 
Q 2766 2663 2505 2880 
Q 2244 3097 1772 3097 
Q 1472 3097 1187 3025 
Q 903 2953 641 2809 
L 641 3341 
Q 956 3463 1253 3523 
Q 1550 3584 1831 3584 
Q 2591 3584 2966 3190 
Q 3341 2797 3341 1997 
z
" transform="scale(0.015625)"/>
        <path id="DejaVuSans-6e" d="M 3513 2113 
L 3513 0 
L 2938 0 
L 2938 2094 
Q 2938 2591 2744 2837 
Q 2550 3084 2163 3084 
Q 1697 3084 1428 2787 
Q 1159 2491 1159 1978 
L 1159 0 
L 581 0 
L 581 3500 
L 1159 3500 
L 1159 2956 
Q 1366 3272 1645 3428 
Q 1925 3584 2291 3584 
Q 2894 3584 3203 3211 
Q 3513 2838 3513 2113 
z
" transform="scale(0.015625)"/>
       </defs>
       <use xlink:href="#DejaVuSans-4a"/>
       <use xlink:href="#DejaVuSans-61" x="29.492188"/>
       <use xlink:href="#DejaVuSans-6e" x="90.771484"/>
      </g>
      <!-- 2010 -->
      <g transform="translate(78.335701 393.244948) rotate(-45) scale(0.1 -0.1)">
       <defs>
        <path id="DejaVuSans-32" d="M 1228 531 
L 3431 531 
L 3431 0 
L 469 0 
L 469 531 
Q 828 903 1448 1529 
Q 2069 2156 2228 2338 
Q 2531 2678 2651 2914 
Q 2772 3150 2772 3378 
Q 2772 3750 2511 3984 
Q 2250 4219 1831 4219 
Q 1534 4219 1204 4116 
Q 875 4013 500 3803 
L 500 4441 
Q 881 4594 1212 4672 
Q 1544 4750 1819 4750 
Q 2544 4750 2975 4387 
Q 3406 4025 3406 3419 
Q 3406 3131 3298 2873 
Q 3191 2616 2906 2266 
Q 2828 2175 2409 1742 
Q 1991 1309 1228 531 
z
" transform="scale(0.015625)"/>
        <path id="DejaVuSans-30" d="M 2034 4250 
Q 1547 4250 1301 3770 
Q 1056 3291 1056 2328 
Q 1056 1369 1301 889 
Q 1547 409 2034 409 
Q 2525 409 2770 889 
Q 3016 1369 3016 2328 
Q 3016 3291 2770 3770 
Q 2525 4250 2034 4250 
z
M 2034 4750 
Q 2819 4750 3233 4129 
Q 3647 3509 3647 2328 
Q 3647 1150 3233 529 
Q 2819 -91 2034 -91 
Q 1250 -91 836 529 
Q 422 1150 422 2328 
Q 422 3509 836 4129 
Q 1250 4750 2034 4750 
z
" transform="scale(0.015625)"/>
        <path id="DejaVuSans-31" d="M 794 531 
L 1825 531 
L 1825 4091 
L 703 3866 
L 703 4441 
L 1819 4666 
L 2450 4666 
L 2450 531 
L 3481 531 
L 3481 0 
L 794 0 
L 794 531 
z
" transform="scale(0.015625)"/>
       </defs>
       <use xlink:href="#DejaVuSans-32"/>
       <use xlink:href="#DejaVuSans-30" x="63.623047"/>
       <use xlink:href="#DejaVuSans-31" x="127.246094"/>
       <use xlink:href="#DejaVuSans-30" x="190.869141"/>
      </g>
     </g>
    </g>
    <g id="xtick_2">
     <g id="line2d_3">
      <path d="M 416.223437 354.958125 
L 416.223437 22.318125 
" clip-path="url(#pcd06bef9e9)" style="fill: none; stroke: #b0b0b0; stroke-width: 0.8; stroke-linecap: square"/>
     </g>
     <g id="line2d_4">
      <g>
       <use xlink:href="#m264666f1da" x="416.223437" y="354.958125" style="stroke: #000000; stroke-width: 0.8"/>
      </g>
     </g>
     <g id="text_2">
      <!-- Jan -->
      <g transform="translate(408.765339 381.779212) rotate(-45) scale(0.1 -0.1)">
       <use xlink:href="#DejaVuSans-4a"/>
       <use xlink:href="#DejaVuSans-61" x="29.492188"/>
       <use xlink:href="#DejaVuSans-6e" x="90.771484"/>
      </g>
      <!-- 2011 -->
      <g transform="translate(413.135701 393.244948) rotate(-45) scale(0.1 -0.1)">
       <use xlink:href="#DejaVuSans-32"/>
       <use xlink:href="#DejaVuSans-30" x="63.623047"/>
       <use xlink:href="#DejaVuSans-31" x="127.246094"/>
       <use xlink:href="#DejaVuSans-31" x="190.869141"/>
      </g>
     </g>
    </g>
    <g id="xtick_3">
     <g id="line2d_5">
      <defs>
       <path id="m98d534807b" d="M 0 0 
L 0 2 
" style="stroke: #000000; stroke-width: 0.6"/>
      </defs>
      <g>
       <use xlink:href="#m98d534807b" x="53.523437" y="354.958125" style="stroke: #000000; stroke-width: 0.6"/>
      </g>
     </g>
    </g>
    <g id="xtick_4">
     <g id="line2d_6">
      <g>
       <use xlink:href="#m98d534807b" x="109.323437" y="354.958125" style="stroke: #000000; stroke-width: 0.6"/>
      </g>
     </g>
    </g>
    <g id="xtick_5">
     <g id="line2d_7">
      <g>
       <use xlink:href="#m98d534807b" x="137.223437" y="354.958125" style="stroke: #000000; stroke-width: 0.6"/>
      </g>
     </g>
    </g>
    <g id="xtick_6">
     <g id="line2d_8">
      <g>
       <use xlink:href="#m98d534807b" x="165.123437" y="354.958125" style="stroke: #000000; stroke-width: 0.6"/>
      </g>
     </g>
     <g id="text_3">
      <!-- Apr -->
      <g transform="translate(156.473437 367.956562) scale(0.1 -0.1)">
       <defs>
        <path id="DejaVuSans-41" d="M 2188 4044 
L 1331 1722 
L 3047 1722 
L 2188 4044 
z
M 1831 4666 
L 2547 4666 
L 4325 0 
L 3669 0 
L 3244 1197 
L 1141 1197 
L 716 0 
L 50 0 
L 1831 4666 
z
" transform="scale(0.015625)"/>
        <path id="DejaVuSans-70" d="M 1159 525 
L 1159 -1331 
L 581 -1331 
L 581 3500 
L 1159 3500 
L 1159 2969 
Q 1341 3281 1617 3432 
Q 1894 3584 2278 3584 
Q 2916 3584 3314 3078 
Q 3713 2572 3713 1747 
Q 3713 922 3314 415 
Q 2916 -91 2278 -91 
Q 1894 -91 1617 61 
Q 1341 213 1159 525 
z
M 3116 1747 
Q 3116 2381 2855 2742 
Q 2594 3103 2138 3103 
Q 1681 3103 1420 2742 
Q 1159 2381 1159 1747 
Q 1159 1113 1420 752 
Q 1681 391 2138 391 
Q 2594 391 2855 752 
Q 3116 1113 3116 1747 
z
" transform="scale(0.015625)"/>
        <path id="DejaVuSans-72" d="M 2631 2963 
Q 2534 3019 2420 3045 
Q 2306 3072 2169 3072 
Q 1681 3072 1420 2755 
Q 1159 2438 1159 1844 
L 1159 0 
L 581 0 
L 581 3500 
L 1159 3500 
L 1159 2956 
Q 1341 3275 1631 3429 
Q 1922 3584 2338 3584 
Q 2397 3584 2469 3576 
Q 2541 3569 2628 3553 
L 2631 2963 
z
" transform="scale(0.015625)"/>
       </defs>
       <use xlink:href="#DejaVuSans-41"/>
       <use xlink:href="#DejaVuSans-70" x="68.408203"/>
       <use xlink:href="#DejaVuSans-72" x="131.884766"/>
      </g>
     </g>
    </g>
    <g id="xtick_7">
     <g id="line2d_9">
      <g>
       <use xlink:href="#m98d534807b" x="193.023437" y="354.958125" style="stroke: #000000; stroke-width: 0.6"/>
      </g>
     </g>
    </g>
    <g id="xtick_8">
     <g id="line2d_10">
      <g>
       <use xlink:href="#m98d534807b" x="220.923437" y="354.958125" style="stroke: #000000; stroke-width: 0.6"/>
      </g>
     </g>
    </g>
    <g id="xtick_9">
     <g id="line2d_11">
      <g>
       <use xlink:href="#m98d534807b" x="248.823437" y="354.958125" style="stroke: #000000; stroke-width: 0.6"/>
      </g>
     </g>
     <g id="text_4">
      <!-- Jul -->
      <g transform="translate(242.790625 367.956562) scale(0.1 -0.1)">
       <defs>
        <path id="DejaVuSans-75" d="M 544 1381 
L 544 3500 
L 1119 3500 
L 1119 1403 
Q 1119 906 1312 657 
Q 1506 409 1894 409 
Q 2359 409 2629 706 
Q 2900 1003 2900 1516 
L 2900 3500 
L 3475 3500 
L 3475 0 
L 2900 0 
L 2900 538 
Q 2691 219 2414 64 
Q 2138 -91 1772 -91 
Q 1169 -91 856 284 
Q 544 659 544 1381 
z
M 1991 3584 
L 1991 3584 
z
" transform="scale(0.015625)"/>
        <path id="DejaVuSans-6c" d="M 603 4863 
L 1178 4863 
L 1178 0 
L 603 0 
L 603 4863 
z
" transform="scale(0.015625)"/>
       </defs>
       <use xlink:href="#DejaVuSans-4a"/>
       <use xlink:href="#DejaVuSans-75" x="29.492188"/>
       <use xlink:href="#DejaVuSans-6c" x="92.871094"/>
      </g>
     </g>
    </g>
    <g id="xtick_10">
     <g id="line2d_12">
      <g>
       <use xlink:href="#m98d534807b" x="276.723437" y="354.958125" style="stroke: #000000; stroke-width: 0.6"/>
      </g>
     </g>
    </g>
    <g id="xtick_11">
     <g id="line2d_13">
      <g>
       <use xlink:href="#m98d534807b" x="304.623437" y="354.958125" style="stroke: #000000; stroke-width: 0.6"/>
      </g>
     </g>
    </g>
    <g id="xtick_12">
     <g id="line2d_14">
      <g>
       <use xlink:href="#m98d534807b" x="332.523437" y="354.958125" style="stroke: #000000; stroke-width: 0.6"/>
      </g>
     </g>
     <g id="text_5">
      <!-- Oct -->
      <g transform="translate(323.878125 367.956562) scale(0.1 -0.1)">
       <defs>
        <path id="DejaVuSans-4f" d="M 2522 4238 
Q 1834 4238 1429 3725 
Q 1025 3213 1025 2328 
Q 1025 1447 1429 934 
Q 1834 422 2522 422 
Q 3209 422 3611 934 
Q 4013 1447 4013 2328 
Q 4013 3213 3611 3725 
Q 3209 4238 2522 4238 
z
M 2522 4750 
Q 3503 4750 4090 4092 
Q 4678 3434 4678 2328 
Q 4678 1225 4090 567 
Q 3503 -91 2522 -91 
Q 1538 -91 948 565 
Q 359 1222 359 2328 
Q 359 3434 948 4092 
Q 1538 4750 2522 4750 
z
" transform="scale(0.015625)"/>
        <path id="DejaVuSans-63" d="M 3122 3366 
L 3122 2828 
Q 2878 2963 2633 3030 
Q 2388 3097 2138 3097 
Q 1578 3097 1268 2742 
Q 959 2388 959 1747 
Q 959 1106 1268 751 
Q 1578 397 2138 397 
Q 2388 397 2633 464 
Q 2878 531 3122 666 
L 3122 134 
Q 2881 22 2623 -34 
Q 2366 -91 2075 -91 
Q 1284 -91 818 406 
Q 353 903 353 1747 
Q 353 2603 823 3093 
Q 1294 3584 2113 3584 
Q 2378 3584 2631 3529 
Q 2884 3475 3122 3366 
z
" transform="scale(0.015625)"/>
        <path id="DejaVuSans-74" d="M 1172 4494 
L 1172 3500 
L 2356 3500 
L 2356 3053 
L 1172 3053 
L 1172 1153 
Q 1172 725 1289 603 
Q 1406 481 1766 481 
L 2356 481 
L 2356 0 
L 1766 0 
Q 1100 0 847 248 
Q 594 497 594 1153 
L 594 3053 
L 172 3053 
L 172 3500 
L 594 3500 
L 594 4494 
L 1172 4494 
z
" transform="scale(0.015625)"/>
       </defs>
       <use xlink:href="#DejaVuSans-4f"/>
       <use xlink:href="#DejaVuSans-63" x="78.710938"/>
       <use xlink:href="#DejaVuSans-74" x="133.691406"/>
      </g>
     </g>
    </g>
    <g id="xtick_13">
     <g id="line2d_15">
      <g>
       <use xlink:href="#m98d534807b" x="360.423437" y="354.958125" style="stroke: #000000; stroke-width: 0.6"/>
      </g>
     </g>
    </g>
    <g id="xtick_14">
     <g id="line2d_16">
      <g>
       <use xlink:href="#m98d534807b" x="388.323437" y="354.958125" style="stroke: #000000; stroke-width: 0.6"/>
      </g>
     </g>
    </g>
    <g id="xtick_15">
     <g id="line2d_17">
      <g>
       <use xlink:href="#m98d534807b" x="444.123437" y="354.958125" style="stroke: #000000; stroke-width: 0.6"/>
      </g>
     </g>
    </g>
    <g id="xtick_16">
     <g id="line2d_18">
      <g>
       <use xlink:href="#m98d534807b" x="472.023437" y="354.958125" style="stroke: #000000; stroke-width: 0.6"/>
      </g>
     </g>
    </g>
    <g id="xtick_17">
     <g id="line2d_19">
      <g>
       <use xlink:href="#m98d534807b" x="499.923437" y="354.958125" style="stroke: #000000; stroke-width: 0.6"/>
      </g>
     </g>
     <g id="text_6">
      <!-- Apr -->
      <g transform="translate(491.273437 367.956562) scale(0.1 -0.1)">
       <use xlink:href="#DejaVuSans-41"/>
       <use xlink:href="#DejaVuSans-70" x="68.408203"/>
       <use xlink:href="#DejaVuSans-72" x="131.884766"/>
      </g>
     </g>
    </g>
    <g id="xtick_18">
     <g id="line2d_20">
      <g>
       <use xlink:href="#m98d534807b" x="527.823437" y="354.958125" style="stroke: #000000; stroke-width: 0.6"/>
      </g>
     </g>
    </g>
    <g id="xtick_19">
     <g id="line2d_21">
      <g>
       <use xlink:href="#m98d534807b" x="555.723437" y="354.958125" style="stroke: #000000; stroke-width: 0.6"/>
      </g>
     </g>
    </g>
    <g id="xtick_20">
     <g id="line2d_22">
      <g>
       <use xlink:href="#m98d534807b" x="583.623437" y="354.958125" style="stroke: #000000; stroke-width: 0.6"/>
      </g>
     </g>
     <g id="text_7">
      <!-- Jul -->
      <g transform="translate(577.590625 367.956562) scale(0.1 -0.1)">
       <use xlink:href="#DejaVuSans-4a"/>
       <use xlink:href="#DejaVuSans-75" x="29.492188"/>
       <use xlink:href="#DejaVuSans-6c" x="92.871094"/>
      </g>
     </g>
    </g>
    <g id="xtick_21">
     <g id="line2d_23">
      <g>
       <use xlink:href="#m98d534807b" x="611.523437" y="354.958125" style="stroke: #000000; stroke-width: 0.6"/>
      </g>
     </g>
    </g>
    <g id="xtick_22">
     <g id="line2d_24">
      <g>
       <use xlink:href="#m98d534807b" x="639.423437" y="354.958125" style="stroke: #000000; stroke-width: 0.6"/>
      </g>
     </g>
    </g>
    <g id="xtick_23">
     <g id="line2d_25">
      <g>
       <use xlink:href="#m98d534807b" x="667.323437" y="354.958125" style="stroke: #000000; stroke-width: 0.6"/>
      </g>
     </g>
     <g id="text_8">
      <!-- Oct -->
      <g transform="translate(658.678125 367.956562) scale(0.1 -0.1)">
       <use xlink:href="#DejaVuSans-4f"/>
       <use xlink:href="#DejaVuSans-63" x="78.710938"/>
       <use xlink:href="#DejaVuSans-74" x="133.691406"/>
      </g>
     </g>
    </g>
    <g id="xtick_24">
     <g id="line2d_26">
      <g>
       <use xlink:href="#m98d534807b" x="695.223437" y="354.958125" style="stroke: #000000; stroke-width: 0.6"/>
      </g>
     </g>
    </g>
    <g id="xtick_25">
     <g id="line2d_27">
      <g>
       <use xlink:href="#m98d534807b" x="723.123437" y="354.958125" style="stroke: #000000; stroke-width: 0.6"/>
      </g>
     </g>
    </g>
    <g id="text_9">
     <!-- Month -->
     <g transform="translate(372.652344 406.313947) scale(0.1 -0.1)">
      <defs>
       <path id="DejaVuSans-4d" d="M 628 4666 
L 1569 4666 
L 2759 1491 
L 3956 4666 
L 4897 4666 
L 4897 0 
L 4281 0 
L 4281 4097 
L 3078 897 
L 2444 897 
L 1241 4097 
L 1241 0 
L 628 0 
L 628 4666 
z
" transform="scale(0.015625)"/>
       <path id="DejaVuSans-6f" d="M 1959 3097 
Q 1497 3097 1228 2736 
Q 959 2375 959 1747 
Q 959 1119 1226 758 
Q 1494 397 1959 397 
Q 2419 397 2687 759 
Q 2956 1122 2956 1747 
Q 2956 2369 2687 2733 
Q 2419 3097 1959 3097 
z
M 1959 3584 
Q 2709 3584 3137 3096 
Q 3566 2609 3566 1747 
Q 3566 888 3137 398 
Q 2709 -91 1959 -91 
Q 1206 -91 779 398 
Q 353 888 353 1747 
Q 353 2609 779 3096 
Q 1206 3584 1959 3584 
z
" transform="scale(0.015625)"/>
       <path id="DejaVuSans-68" d="M 3513 2113 
L 3513 0 
L 2938 0 
L 2938 2094 
Q 2938 2591 2744 2837 
Q 2550 3084 2163 3084 
Q 1697 3084 1428 2787 
Q 1159 2491 1159 1978 
L 1159 0 
L 581 0 
L 581 4863 
L 1159 4863 
L 1159 2956 
Q 1366 3272 1645 3428 
Q 1925 3584 2291 3584 
Q 2894 3584 3203 3211 
Q 3513 2838 3513 2113 
z
" transform="scale(0.015625)"/>
      </defs>
      <use xlink:href="#DejaVuSans-4d"/>
      <use xlink:href="#DejaVuSans-6f" x="86.279297"/>
      <use xlink:href="#DejaVuSans-6e" x="147.460938"/>
      <use xlink:href="#DejaVuSans-74" x="210.839844"/>
      <use xlink:href="#DejaVuSans-68" x="250.048828"/>
     </g>
    </g>
   </g>
   <g id="matplotlib.axis_2">
    <g id="ytick_1">
     <g id="line2d_28">
      <path d="M 53.523438 339.855814 
L 723.123438 339.855814 
" clip-path="url(#pcd06bef9e9)" style="fill: none; stroke: #b0b0b0; stroke-width: 0.8; stroke-linecap: square"/>
     </g>
     <g id="line2d_29">
      <defs>
       <path id="m8ed49e07d8" d="M 0 0 
L -3.5 0 
" style="stroke: #000000; stroke-width: 0.8"/>
      </defs>
      <g>
       <use xlink:href="#m8ed49e07d8" x="53.523438" y="339.855814" style="stroke: #000000; stroke-width: 0.8"/>
      </g>
     </g>
     <g id="text_10">
      <!-- 0 -->
      <g transform="translate(40.160938 343.655033) scale(0.1 -0.1)">
       <use xlink:href="#DejaVuSans-30"/>
      </g>
     </g>
    </g>
    <g id="ytick_2">
     <g id="line2d_30">
      <path d="M 53.523438 276.905569 
L 723.123438 276.905569 
" clip-path="url(#pcd06bef9e9)" style="fill: none; stroke: #b0b0b0; stroke-width: 0.8; stroke-linecap: square"/>
     </g>
     <g id="line2d_31">
      <g>
       <use xlink:href="#m8ed49e07d8" x="53.523438" y="276.905569" style="stroke: #000000; stroke-width: 0.8"/>
      </g>
     </g>
     <g id="text_11">
      <!-- 200K -->
      <g transform="translate(20.878125 280.704788) scale(0.1 -0.1)">
       <defs>
        <path id="DejaVuSans-4b" d="M 628 4666 
L 1259 4666 
L 1259 2694 
L 3353 4666 
L 4166 4666 
L 1850 2491 
L 4331 0 
L 3500 0 
L 1259 2247 
L 1259 0 
L 628 0 
L 628 4666 
z
" transform="scale(0.015625)"/>
       </defs>
       <use xlink:href="#DejaVuSans-32"/>
       <use xlink:href="#DejaVuSans-30" x="63.623047"/>
       <use xlink:href="#DejaVuSans-30" x="127.246094"/>
       <use xlink:href="#DejaVuSans-4b" x="190.869141"/>
      </g>
     </g>
    </g>
    <g id="ytick_3">
     <g id="line2d_32">
      <path d="M 53.523438 213.955324 
L 723.123438 213.955324 
" clip-path="url(#pcd06bef9e9)" style="fill: none; stroke: #b0b0b0; stroke-width: 0.8; stroke-linecap: square"/>
     </g>
     <g id="line2d_33">
      <g>
       <use xlink:href="#m8ed49e07d8" x="53.523438" y="213.955324" style="stroke: #000000; stroke-width: 0.8"/>
      </g>
     </g>
     <g id="text_12">
      <!-- 400K -->
      <g transform="translate(20.878125 217.754543) scale(0.1 -0.1)">
       <defs>
        <path id="DejaVuSans-34" d="M 2419 4116 
L 825 1625 
L 2419 1625 
L 2419 4116 
z
M 2253 4666 
L 3047 4666 
L 3047 1625 
L 3713 1625 
L 3713 1100 
L 3047 1100 
L 3047 0 
L 2419 0 
L 2419 1100 
L 313 1100 
L 313 1709 
L 2253 4666 
z
" transform="scale(0.015625)"/>
       </defs>
       <use xlink:href="#DejaVuSans-34"/>
       <use xlink:href="#DejaVuSans-30" x="63.623047"/>
       <use xlink:href="#DejaVuSans-30" x="127.246094"/>
       <use xlink:href="#DejaVuSans-4b" x="190.869141"/>
      </g>
     </g>
    </g>
    <g id="ytick_4">
     <g id="line2d_34">
      <path d="M 53.523438 151.005079 
L 723.123438 151.005079 
" clip-path="url(#pcd06bef9e9)" style="fill: none; stroke: #b0b0b0; stroke-width: 0.8; stroke-linecap: square"/>
     </g>
     <g id="line2d_35">
      <g>
       <use xlink:href="#m8ed49e07d8" x="53.523438" y="151.005079" style="stroke: #000000; stroke-width: 0.8"/>
      </g>
     </g>
     <g id="text_13">
      <!-- 600K -->
      <g transform="translate(20.878125 154.804298) scale(0.1 -0.1)">
       <defs>
        <path id="DejaVuSans-36" d="M 2113 2584 
Q 1688 2584 1439 2293 
Q 1191 2003 1191 1497 
Q 1191 994 1439 701 
Q 1688 409 2113 409 
Q 2538 409 2786 701 
Q 3034 994 3034 1497 
Q 3034 2003 2786 2293 
Q 2538 2584 2113 2584 
z
M 3366 4563 
L 3366 3988 
Q 3128 4100 2886 4159 
Q 2644 4219 2406 4219 
Q 1781 4219 1451 3797 
Q 1122 3375 1075 2522 
Q 1259 2794 1537 2939 
Q 1816 3084 2150 3084 
Q 2853 3084 3261 2657 
Q 3669 2231 3669 1497 
Q 3669 778 3244 343 
Q 2819 -91 2113 -91 
Q 1303 -91 875 529 
Q 447 1150 447 2328 
Q 447 3434 972 4092 
Q 1497 4750 2381 4750 
Q 2619 4750 2861 4703 
Q 3103 4656 3366 4563 
z
" transform="scale(0.015625)"/>
       </defs>
       <use xlink:href="#DejaVuSans-36"/>
       <use xlink:href="#DejaVuSans-30" x="63.623047"/>
       <use xlink:href="#DejaVuSans-30" x="127.246094"/>
       <use xlink:href="#DejaVuSans-4b" x="190.869141"/>
      </g>
     </g>
    </g>
    <g id="ytick_5">
     <g id="line2d_36">
      <path d="M 53.523438 88.054834 
L 723.123438 88.054834 
" clip-path="url(#pcd06bef9e9)" style="fill: none; stroke: #b0b0b0; stroke-width: 0.8; stroke-linecap: square"/>
     </g>
     <g id="line2d_37">
      <g>
       <use xlink:href="#m8ed49e07d8" x="53.523438" y="88.054834" style="stroke: #000000; stroke-width: 0.8"/>
      </g>
     </g>
     <g id="text_14">
      <!-- 800K -->
      <g transform="translate(20.878125 91.854053) scale(0.1 -0.1)">
       <defs>
        <path id="DejaVuSans-38" d="M 2034 2216 
Q 1584 2216 1326 1975 
Q 1069 1734 1069 1313 
Q 1069 891 1326 650 
Q 1584 409 2034 409 
Q 2484 409 2743 651 
Q 3003 894 3003 1313 
Q 3003 1734 2745 1975 
Q 2488 2216 2034 2216 
z
M 1403 2484 
Q 997 2584 770 2862 
Q 544 3141 544 3541 
Q 544 4100 942 4425 
Q 1341 4750 2034 4750 
Q 2731 4750 3128 4425 
Q 3525 4100 3525 3541 
Q 3525 3141 3298 2862 
Q 3072 2584 2669 2484 
Q 3125 2378 3379 2068 
Q 3634 1759 3634 1313 
Q 3634 634 3220 271 
Q 2806 -91 2034 -91 
Q 1263 -91 848 271 
Q 434 634 434 1313 
Q 434 1759 690 2068 
Q 947 2378 1403 2484 
z
M 1172 3481 
Q 1172 3119 1398 2916 
Q 1625 2713 2034 2713 
Q 2441 2713 2670 2916 
Q 2900 3119 2900 3481 
Q 2900 3844 2670 4047 
Q 2441 4250 2034 4250 
Q 1625 4250 1398 4047 
Q 1172 3844 1172 3481 
z
" transform="scale(0.015625)"/>
       </defs>
       <use xlink:href="#DejaVuSans-38"/>
       <use xlink:href="#DejaVuSans-30" x="63.623047"/>
       <use xlink:href="#DejaVuSans-30" x="127.246094"/>
       <use xlink:href="#DejaVuSans-4b" x="190.869141"/>
      </g>
     </g>
    </g>
    <g id="ytick_6">
     <g id="line2d_38">
      <path d="M 53.523438 25.104589 
L 723.123438 25.104589 
" clip-path="url(#pcd06bef9e9)" style="fill: none; stroke: #b0b0b0; stroke-width: 0.8; stroke-linecap: square"/>
     </g>
     <g id="line2d_39">
      <g>
       <use xlink:href="#m8ed49e07d8" x="53.523438" y="25.104589" style="stroke: #000000; stroke-width: 0.8"/>
      </g>
     </g>
     <g id="text_15">
      <!-- 1M -->
      <g transform="translate(31.532813 28.903808) scale(0.1 -0.1)">
       <use xlink:href="#DejaVuSans-31"/>
       <use xlink:href="#DejaVuSans-4d" x="63.623047"/>
      </g>
     </g>
    </g>
    <g id="text_16">
     <!-- Total Sales -->
     <g transform="translate(14.798438 215.212344) rotate(-90) scale(0.1 -0.1)">
      <defs>
       <path id="DejaVuSans-54" d="M -19 4666 
L 3928 4666 
L 3928 4134 
L 2272 4134 
L 2272 0 
L 1638 0 
L 1638 4134 
L -19 4134 
L -19 4666 
z
" transform="scale(0.015625)"/>
       <path id="DejaVuSans-20" transform="scale(0.015625)"/>
       <path id="DejaVuSans-53" d="M 3425 4513 
L 3425 3897 
Q 3066 4069 2747 4153 
Q 2428 4238 2131 4238 
Q 1616 4238 1336 4038 
Q 1056 3838 1056 3469 
Q 1056 3159 1242 3001 
Q 1428 2844 1947 2747 
L 2328 2669 
Q 3034 2534 3370 2195 
Q 3706 1856 3706 1288 
Q 3706 609 3251 259 
Q 2797 -91 1919 -91 
Q 1588 -91 1214 -16 
Q 841 59 441 206 
L 441 856 
Q 825 641 1194 531 
Q 1563 422 1919 422 
Q 2459 422 2753 634 
Q 3047 847 3047 1241 
Q 3047 1584 2836 1778 
Q 2625 1972 2144 2069 
L 1759 2144 
Q 1053 2284 737 2584 
Q 422 2884 422 3419 
Q 422 4038 858 4394 
Q 1294 4750 2059 4750 
Q 2388 4750 2728 4690 
Q 3069 4631 3425 4513 
z
" transform="scale(0.015625)"/>
       <path id="DejaVuSans-65" d="M 3597 1894 
L 3597 1613 
L 953 1613 
Q 991 1019 1311 708 
Q 1631 397 2203 397 
Q 2534 397 2845 478 
Q 3156 559 3463 722 
L 3463 178 
Q 3153 47 2828 -22 
Q 2503 -91 2169 -91 
Q 1331 -91 842 396 
Q 353 884 353 1716 
Q 353 2575 817 3079 
Q 1281 3584 2069 3584 
Q 2775 3584 3186 3129 
Q 3597 2675 3597 1894 
z
M 3022 2063 
Q 3016 2534 2758 2815 
Q 2500 3097 2075 3097 
Q 1594 3097 1305 2825 
Q 1016 2553 972 2059 
L 3022 2063 
z
" transform="scale(0.015625)"/>
       <path id="DejaVuSans-73" d="M 2834 3397 
L 2834 2853 
Q 2591 2978 2328 3040 
Q 2066 3103 1784 3103 
Q 1356 3103 1142 2972 
Q 928 2841 928 2578 
Q 928 2378 1081 2264 
Q 1234 2150 1697 2047 
L 1894 2003 
Q 2506 1872 2764 1633 
Q 3022 1394 3022 966 
Q 3022 478 2636 193 
Q 2250 -91 1575 -91 
Q 1294 -91 989 -36 
Q 684 19 347 128 
L 347 722 
Q 666 556 975 473 
Q 1284 391 1588 391 
Q 1994 391 2212 530 
Q 2431 669 2431 922 
Q 2431 1156 2273 1281 
Q 2116 1406 1581 1522 
L 1381 1569 
Q 847 1681 609 1914 
Q 372 2147 372 2553 
Q 372 3047 722 3315 
Q 1072 3584 1716 3584 
Q 2034 3584 2315 3537 
Q 2597 3491 2834 3397 
z
" transform="scale(0.015625)"/>
      </defs>
      <use xlink:href="#DejaVuSans-54"/>
      <use xlink:href="#DejaVuSans-6f" x="44.083984"/>
      <use xlink:href="#DejaVuSans-74" x="105.265625"/>
      <use xlink:href="#DejaVuSans-61" x="144.474609"/>
      <use xlink:href="#DejaVuSans-6c" x="205.753906"/>
      <use xlink:href="#DejaVuSans-20" x="233.537109"/>
      <use xlink:href="#DejaVuSans-53" x="265.324219"/>
      <use xlink:href="#DejaVuSans-61" x="328.800781"/>
      <use xlink:href="#DejaVuSans-6c" x="390.080078"/>
      <use xlink:href="#DejaVuSans-65" x="417.863281"/>
      <use xlink:href="#DejaVuSans-73" x="479.386719"/>
     </g>
    </g>
   </g>
   <g id="line2d_40">
    <path d="M 53.523437 172.113243 
L 81.423437 205.098564 
L 109.323437 227.706282 
L 137.223437 181.850038 
L 165.123437 206.921984 
L 193.023437 201.407615 
L 220.923437 183.817705 
L 248.823437 195.211061 
L 276.723437 187.178971 
L 304.623437 143.531185 
L 332.523437 99.002114 
L 360.423437 49.831315 
L 388.323437 188.793469 
L 416.223437 190.727505 
L 444.123437 223.330655 
L 472.023437 186.066445 
L 499.923437 228.647143 
L 527.823437 164.832758 
L 555.723437 171.434854 
L 583.623437 180.753501 
L 611.523437 168.327721 
L 639.423437 95.837678 
L 667.323437 67.441902 
L 695.223437 37.438125 
L 723.123437 192.171571 
" clip-path="url(#pcd06bef9e9)" style="fill: none; stroke: #1f77b4; stroke-width: 1.5; stroke-linecap: square"/>
    <defs>
     <path id="m857840ff0f" d="M 0 3 
C 0.795609 3 1.55874 2.683901 2.12132 2.12132 
C 2.683901 1.55874 3 0.795609 3 0 
C 3 -0.795609 2.683901 -1.55874 2.12132 -2.12132 
C 1.55874 -2.683901 0.795609 -3 0 -3 
C -0.795609 -3 -1.55874 -2.683901 -2.12132 -2.12132 
C -2.683901 -1.55874 -3 -0.795609 -3 0 
C -3 0.795609 -2.683901 1.55874 -2.12132 2.12132 
C -1.55874 2.683901 -0.795609 3 0 3 
z
" style="stroke: #1f77b4"/>
    </defs>
    <g clip-path="url(#pcd06bef9e9)">
     <use xlink:href="#m857840ff0f" x="53.523437" y="172.113243" style="fill: #1f77b4; stroke: #1f77b4"/>
     <use xlink:href="#m857840ff0f" x="81.423437" y="205.098564" style="fill: #1f77b4; stroke: #1f77b4"/>
     <use xlink:href="#m857840ff0f" x="109.323437" y="227.706282" style="fill: #1f77b4; stroke: #1f77b4"/>
     <use xlink:href="#m857840ff0f" x="137.223437" y="181.850038" style="fill: #1f77b4; stroke: #1f77b4"/>
     <use xlink:href="#m857840ff0f" x="165.123437" y="206.921984" style="fill: #1f77b4; stroke: #1f77b4"/>
     <use xlink:href="#m857840ff0f" x="193.023437" y="201.407615" style="fill: #1f77b4; stroke: #1f77b4"/>
     <use xlink:href="#m857840ff0f" x="220.923437" y="183.817705" style="fill: #1f77b4; stroke: #1f77b4"/>
     <use xlink:href="#m857840ff0f" x="248.823437" y="195.211061" style="fill: #1f77b4; stroke: #1f77b4"/>
     <use xlink:href="#m857840ff0f" x="276.723437" y="187.178971" style="fill: #1f77b4; stroke: #1f77b4"/>
     <use xlink:href="#m857840ff0f" x="304.623437" y="143.531185" style="fill: #1f77b4; stroke: #1f77b4"/>
     <use xlink:href="#m857840ff0f" x="332.523437" y="99.002114" style="fill: #1f77b4; stroke: #1f77b4"/>
     <use xlink:href="#m857840ff0f" x="360.423437" y="49.831315" style="fill: #1f77b4; stroke: #1f77b4"/>
     <use xlink:href="#m857840ff0f" x="388.323437" y="188.793469" style="fill: #1f77b4; stroke: #1f77b4"/>
     <use xlink:href="#m857840ff0f" x="416.223437" y="190.727505" style="fill: #1f77b4; stroke: #1f77b4"/>
     <use xlink:href="#m857840ff0f" x="444.123437" y="223.330655" style="fill: #1f77b4; stroke: #1f77b4"/>
     <use xlink:href="#m857840ff0f" x="472.023437" y="186.066445" style="fill: #1f77b4; stroke: #1f77b4"/>
     <use xlink:href="#m857840ff0f" x="499.923437" y="228.647143" style="fill: #1f77b4; stroke: #1f77b4"/>
     <use xlink:href="#m857840ff0f" x="527.823437" y="164.832758" style="fill: #1f77b4; stroke: #1f77b4"/>
     <use xlink:href="#m857840ff0f" x="555.723437" y="171.434854" style="fill: #1f77b4; stroke: #1f77b4"/>
     <use xlink:href="#m857840ff0f" x="583.623437" y="180.753501" style="fill: #1f77b4; stroke: #1f77b4"/>
     <use xlink:href="#m857840ff0f" x="611.523437" y="168.327721" style="fill: #1f77b4; stroke: #1f77b4"/>
     <use xlink:href="#m857840ff0f" x="639.423437" y="95.837678" style="fill: #1f77b4; stroke: #1f77b4"/>
     <use xlink:href="#m857840ff0f" x="667.323437" y="67.441902" style="fill: #1f77b4; stroke: #1f77b4"/>
     <use xlink:href="#m857840ff0f" x="695.223437" y="37.438125" style="fill: #1f77b4; stroke: #1f77b4"/>
     <use xlink:href="#m857840ff0f" x="723.123437" y="192.171571" style="fill: #1f77b4; stroke: #1f77b4"/>
    </g>
   </g>
   <g id="line2d_41">
    <path d="M 53.523437 331.103993 
L 81.423437 335.129399 
L 109.323437 332.930975 
L 137.223437 328.628886 
L 165.123437 331.760598 
L 193.023437 332.93925 
L 220.923437 332.164311 
L 248.823437 334.860668 
L 276.723437 333.537687 
L 304.623437 330.413847 
L 332.523437 321.833596 
L 360.423437 323.030913 
L 388.323437 336.052914 
L 416.223437 335.108491 
L 444.123437 335.016322 
L 472.023437 332.849367 
L 499.923437 334.760291 
L 527.823437 334.575626 
L 555.723437 335.933664 
L 583.623437 337.254719 
L 611.523437 337.521852 
L 639.423437 338.678682 
L 667.323437 339.449634 
L 695.223437 339.838125 
" clip-path="url(#pcd06bef9e9)" style="fill: none; stroke: #ff7f0e; stroke-width: 1.5; stroke-linecap: square"/>
    <defs>
     <path id="mf36800add8" d="M 0 3 
C 0.795609 3 1.55874 2.683901 2.12132 2.12132 
C 2.683901 1.55874 3 0.795609 3 0 
C 3 -0.795609 2.683901 -1.55874 2.12132 -2.12132 
C 1.55874 -2.683901 0.795609 -3 0 -3 
C -0.795609 -3 -1.55874 -2.683901 -2.12132 -2.12132 
C -2.683901 -1.55874 -3 -0.795609 -3 0 
C -3 0.795609 -2.683901 1.55874 -2.12132 2.12132 
C -1.55874 2.683901 -0.795609 3 0 3 
z
" style="stroke: #ff7f0e"/>
    </defs>
    <g clip-path="url(#pcd06bef9e9)">
     <use xlink:href="#mf36800add8" x="53.523437" y="331.103993" style="fill: #ff7f0e; stroke: #ff7f0e"/>
     <use xlink:href="#mf36800add8" x="81.423437" y="335.129399" style="fill: #ff7f0e; stroke: #ff7f0e"/>
     <use xlink:href="#mf36800add8" x="109.323437" y="332.930975" style="fill: #ff7f0e; stroke: #ff7f0e"/>
     <use xlink:href="#mf36800add8" x="137.223437" y="328.628886" style="fill: #ff7f0e; stroke: #ff7f0e"/>
     <use xlink:href="#mf36800add8" x="165.123437" y="331.760598" style="fill: #ff7f0e; stroke: #ff7f0e"/>
     <use xlink:href="#mf36800add8" x="193.023437" y="332.93925" style="fill: #ff7f0e; stroke: #ff7f0e"/>
     <use xlink:href="#mf36800add8" x="220.923437" y="332.164311" style="fill: #ff7f0e; stroke: #ff7f0e"/>
     <use xlink:href="#mf36800add8" x="248.823437" y="334.860668" style="fill: #ff7f0e; stroke: #ff7f0e"/>
     <use xlink:href="#mf36800add8" x="276.723437" y="333.537687" style="fill: #ff7f0e; stroke: #ff7f0e"/>
     <use xlink:href="#mf36800add8" x="304.623437" y="330.413847" style="fill: #ff7f0e; stroke: #ff7f0e"/>
     <use xlink:href="#mf36800add8" x="332.523437" y="321.833596" style="fill: #ff7f0e; stroke: #ff7f0e"/>
     <use xlink:href="#mf36800add8" x="360.423437" y="323.030913" style="fill: #ff7f0e; stroke: #ff7f0e"/>
     <use xlink:href="#mf36800add8" x="388.323437" y="336.052914" style="fill: #ff7f0e; stroke: #ff7f0e"/>
     <use xlink:href="#mf36800add8" x="416.223437" y="335.108491" style="fill: #ff7f0e; stroke: #ff7f0e"/>
     <use xlink:href="#mf36800add8" x="444.123437" y="335.016322" style="fill: #ff7f0e; stroke: #ff7f0e"/>
     <use xlink:href="#mf36800add8" x="472.023437" y="332.849367" style="fill: #ff7f0e; stroke: #ff7f0e"/>
     <use xlink:href="#mf36800add8" x="499.923437" y="334.760291" style="fill: #ff7f0e; stroke: #ff7f0e"/>
     <use xlink:href="#mf36800add8" x="527.823437" y="334.575626" style="fill: #ff7f0e; stroke: #ff7f0e"/>
     <use xlink:href="#mf36800add8" x="555.723437" y="335.933664" style="fill: #ff7f0e; stroke: #ff7f0e"/>
     <use xlink:href="#mf36800add8" x="583.623437" y="337.254719" style="fill: #ff7f0e; stroke: #ff7f0e"/>
     <use xlink:href="#mf36800add8" x="611.523437" y="337.521852" style="fill: #ff7f0e; stroke: #ff7f0e"/>
     <use xlink:href="#mf36800add8" x="639.423437" y="338.678682" style="fill: #ff7f0e; stroke: #ff7f0e"/>
     <use xlink:href="#mf36800add8" x="667.323437" y="339.449634" style="fill: #ff7f0e; stroke: #ff7f0e"/>
     <use xlink:href="#mf36800add8" x="695.223437" y="339.838125" style="fill: #ff7f0e; stroke: #ff7f0e"/>
    </g>
   </g>
   <g id="line2d_42">
    <path d="M 53.523437 304.543153 
L 81.423437 306.067389 
L 109.323437 302.52724 
L 137.223437 292.07779 
L 165.123437 296.468754 
L 193.023437 300.28743 
L 220.923437 306.674636 
L 248.823437 305.515571 
L 276.723437 311.866964 
L 304.623437 290.004067 
L 332.523437 283.48912 
L 360.423437 290.661227 
L 388.323437 318.341567 
L 416.223437 316.121482 
L 444.123437 324.248566 
L 472.023437 317.331042 
L 499.923437 313.052223 
L 527.823437 312.356468 
L 555.723437 310.188191 
L 583.623437 322.485399 
L 611.523437 322.378245 
L 639.423437 321.801233 
L 667.323437 334.380789 
" clip-path="url(#pcd06bef9e9)" style="fill: none; stroke: #2ca02c; stroke-width: 1.5; stroke-linecap: square"/>
    <defs>
     <path id="m421726a7ff" d="M 0 3 
C 0.795609 3 1.55874 2.683901 2.12132 2.12132 
C 2.683901 1.55874 3 0.795609 3 0 
C 3 -0.795609 2.683901 -1.55874 2.12132 -2.12132 
C 1.55874 -2.683901 0.795609 -3 0 -3 
C -0.795609 -3 -1.55874 -2.683901 -2.12132 -2.12132 
C -2.683901 -1.55874 -3 -0.795609 -3 0 
C -3 0.795609 -2.683901 1.55874 -2.12132 2.12132 
C -1.55874 2.683901 -0.795609 3 0 3 
z
" style="stroke: #2ca02c"/>
    </defs>
    <g clip-path="url(#pcd06bef9e9)">
     <use xlink:href="#m421726a7ff" x="53.523437" y="304.543153" style="fill: #2ca02c; stroke: #2ca02c"/>
     <use xlink:href="#m421726a7ff" x="81.423437" y="306.067389" style="fill: #2ca02c; stroke: #2ca02c"/>
     <use xlink:href="#m421726a7ff" x="109.323437" y="302.52724" style="fill: #2ca02c; stroke: #2ca02c"/>
     <use xlink:href="#m421726a7ff" x="137.223437" y="292.07779" style="fill: #2ca02c; stroke: #2ca02c"/>
     <use xlink:href="#m421726a7ff" x="165.123437" y="296.468754" style="fill: #2ca02c; stroke: #2ca02c"/>
     <use xlink:href="#m421726a7ff" x="193.023437" y="300.28743" style="fill: #2ca02c; stroke: #2ca02c"/>
     <use xlink:href="#m421726a7ff" x="220.923437" y="306.674636" style="fill: #2ca02c; stroke: #2ca02c"/>
     <use xlink:href="#m421726a7ff" x="248.823437" y="305.515571" style="fill: #2ca02c; stroke: #2ca02c"/>
     <use xlink:href="#m421726a7ff" x="276.723437" y="311.866964" style="fill: #2ca02c; stroke: #2ca02c"/>
     <use xlink:href="#m421726a7ff" x="304.623437" y="290.004067" style="fill: #2ca02c; stroke: #2ca02c"/>
     <use xlink:href="#m421726a7ff" x="332.523437" y="283.48912" style="fill: #2ca02c; stroke: #2ca02c"/>
     <use xlink:href="#m421726a7ff" x="360.423437" y="290.661227" style="fill: #2ca02c; stroke: #2ca02c"/>
     <use xlink:href="#m421726a7ff" x="388.323437" y="318.341567" style="fill: #2ca02c; stroke: #2ca02c"/>
     <use xlink:href="#m421726a7ff" x="416.223437" y="316.121482" style="fill: #2ca02c; stroke: #2ca02c"/>
     <use xlink:href="#m421726a7ff" x="444.123437" y="324.248566" style="fill: #2ca02c; stroke: #2ca02c"/>
     <use xlink:href="#m421726a7ff" x="472.023437" y="317.331042" style="fill: #2ca02c; stroke: #2ca02c"/>
     <use xlink:href="#m421726a7ff" x="499.923437" y="313.052223" style="fill: #2ca02c; stroke: #2ca02c"/>
     <use xlink:href="#m421726a7ff" x="527.823437" y="312.356468" style="fill: #2ca02c; stroke: #2ca02c"/>
     <use xlink:href="#m421726a7ff" x="555.723437" y="310.188191" style="fill: #2ca02c; stroke: #2ca02c"/>
     <use xlink:href="#m421726a7ff" x="583.623437" y="322.485399" style="fill: #2ca02c; stroke: #2ca02c"/>
     <use xlink:href="#m421726a7ff" x="611.523437" y="322.378245" style="fill: #2ca02c; stroke: #2ca02c"/>
     <use xlink:href="#m421726a7ff" x="639.423437" y="321.801233" style="fill: #2ca02c; stroke: #2ca02c"/>
     <use xlink:href="#m421726a7ff" x="667.323437" y="334.380789" style="fill: #2ca02c; stroke: #2ca02c"/>
    </g>
   </g>
   <g id="line2d_43">
    <path d="M 53.523437 336.529142 
L 81.423437 338.188331 
L 109.323437 337.44821 
L 137.223437 337.491714 
L 165.123437 337.944859 
L 193.023437 336.620171 
L 220.923437 336.468011 
L 248.823437 338.215774 
L 276.723437 337.288703 
L 304.623437 334.541 
L 332.523437 329.925155 
L 360.423437 328.75508 
L 388.323437 336.694053 
L 416.223437 338.655195 
L 444.123437 336.421938 
L 472.023437 336.18844 
L 499.923437 335.542205 
L 527.823437 334.46004 
L 555.723437 334.116244 
L 583.623437 330.405329 
L 611.523437 328.479584 
L 639.423437 303.874757 
L 667.323437 292.181201 
L 695.223437 278.37406 
L 723.123437 324.748067 
" clip-path="url(#pcd06bef9e9)" style="fill: none; stroke: #d62728; stroke-width: 1.5; stroke-linecap: square"/>
    <defs>
     <path id="m47b5557616" d="M 0 3 
C 0.795609 3 1.55874 2.683901 2.12132 2.12132 
C 2.683901 1.55874 3 0.795609 3 0 
C 3 -0.795609 2.683901 -1.55874 2.12132 -2.12132 
C 1.55874 -2.683901 0.795609 -3 0 -3 
C -0.795609 -3 -1.55874 -2.683901 -2.12132 -2.12132 
C -2.683901 -1.55874 -3 -0.795609 -3 0 
C -3 0.795609 -2.683901 1.55874 -2.12132 2.12132 
C -1.55874 2.683901 -0.795609 3 0 3 
z
" style="stroke: #d62728"/>
    </defs>
    <g clip-path="url(#pcd06bef9e9)">
     <use xlink:href="#m47b5557616" x="53.523437" y="336.529142" style="fill: #d62728; stroke: #d62728"/>
     <use xlink:href="#m47b5557616" x="81.423437" y="338.188331" style="fill: #d62728; stroke: #d62728"/>
     <use xlink:href="#m47b5557616" x="109.323437" y="337.44821" style="fill: #d62728; stroke: #d62728"/>
     <use xlink:href="#m47b5557616" x="137.223437" y="337.491714" style="fill: #d62728; stroke: #d62728"/>
     <use xlink:href="#m47b5557616" x="165.123437" y="337.944859" style="fill: #d62728; stroke: #d62728"/>
     <use xlink:href="#m47b5557616" x="193.023437" y="336.620171" style="fill: #d62728; stroke: #d62728"/>
     <use xlink:href="#m47b5557616" x="220.923437" y="336.468011" style="fill: #d62728; stroke: #d62728"/>
     <use xlink:href="#m47b5557616" x="248.823437" y="338.215774" style="fill: #d62728; stroke: #d62728"/>
     <use xlink:href="#m47b5557616" x="276.723437" y="337.288703" style="fill: #d62728; stroke: #d62728"/>
     <use xlink:href="#m47b5557616" x="304.623437" y="334.541" style="fill: #d62728; stroke: #d62728"/>
     <use xlink:href="#m47b5557616" x="332.523437" y="329.925155" style="fill: #d62728; stroke: #d62728"/>
     <use xlink:href="#m47b5557616" x="360.423437" y="328.75508" style="fill: #d62728; stroke: #d62728"/>
     <use xlink:href="#m47b5557616" x="388.323437" y="336.694053" style="fill: #d62728; stroke: #d62728"/>
     <use xlink:href="#m47b5557616" x="416.223437" y="338.655195" style="fill: #d62728; stroke: #d62728"/>
     <use xlink:href="#m47b5557616" x="444.123437" y="336.421938" style="fill: #d62728; stroke: #d62728"/>
     <use xlink:href="#m47b5557616" x="472.023437" y="336.18844" style="fill: #d62728; stroke: #d62728"/>
     <use xlink:href="#m47b5557616" x="499.923437" y="335.542205" style="fill: #d62728; stroke: #d62728"/>
     <use xlink:href="#m47b5557616" x="527.823437" y="334.46004" style="fill: #d62728; stroke: #d62728"/>
     <use xlink:href="#m47b5557616" x="555.723437" y="334.116244" style="fill: #d62728; stroke: #d62728"/>
     <use xlink:href="#m47b5557616" x="583.623437" y="330.405329" style="fill: #d62728; stroke: #d62728"/>
     <use xlink:href="#m47b5557616" x="611.523437" y="328.479584" style="fill: #d62728; stroke: #d62728"/>
     <use xlink:href="#m47b5557616" x="639.423437" y="303.874757" style="fill: #d62728; stroke: #d62728"/>
     <use xlink:href="#m47b5557616" x="667.323437" y="292.181201" style="fill: #d62728; stroke: #d62728"/>
     <use xlink:href="#m47b5557616" x="695.223437" y="278.37406" style="fill: #d62728; stroke: #d62728"/>
     <use xlink:href="#m47b5557616" x="723.123437" y="324.748067" style="fill: #d62728; stroke: #d62728"/>
    </g>
   </g>
   <g id="patch_3">
    <path d="M 53.523438 354.958125 
L 53.523438 22.318125 
" style="fill: none; stroke: #000000; stroke-width: 0.8; stroke-linejoin: miter; stroke-linecap: square"/>
   </g>
   <g id="patch_4">
    <path d="M 723.123438 354.958125 
L 723.123438 22.318125 
" style="fill: none; stroke: #000000; stroke-width: 0.8; stroke-linejoin: miter; stroke-linecap: square"/>
   </g>
   <g id="patch_5">
    <path d="M 53.523437 354.958125 
L 723.123437 354.958125 
" style="fill: none; stroke: #000000; stroke-width: 0.8; stroke-linejoin: miter; stroke-linecap: square"/>
   </g>
   <g id="patch_6">
    <path d="M 53.523437 22.318125 
L 723.123437 22.318125 
" style="fill: none; stroke: #000000; stroke-width: 0.8; stroke-linejoin: miter; stroke-linecap: square"/>
   </g>
   <g id="text_17">
    <!-- Monthly Sales by Cluster -->
    <g transform="translate(313.953438 16.318125) scale(0.12 -0.12)">
     <defs>
      <path id="DejaVuSans-79" d="M 2059 -325 
Q 1816 -950 1584 -1140 
Q 1353 -1331 966 -1331 
L 506 -1331 
L 506 -850 
L 844 -850 
Q 1081 -850 1212 -737 
Q 1344 -625 1503 -206 
L 1606 56 
L 191 3500 
L 800 3500 
L 1894 763 
L 2988 3500 
L 3597 3500 
L 2059 -325 
z
" transform="scale(0.015625)"/>
      <path id="DejaVuSans-62" d="M 3116 1747 
Q 3116 2381 2855 2742 
Q 2594 3103 2138 3103 
Q 1681 3103 1420 2742 
Q 1159 2381 1159 1747 
Q 1159 1113 1420 752 
Q 1681 391 2138 391 
Q 2594 391 2855 752 
Q 3116 1113 3116 1747 
z
M 1159 2969 
Q 1341 3281 1617 3432 
Q 1894 3584 2278 3584 
Q 2916 3584 3314 3078 
Q 3713 2572 3713 1747 
Q 3713 922 3314 415 
Q 2916 -91 2278 -91 
Q 1894 -91 1617 61 
Q 1341 213 1159 525 
L 1159 0 
L 581 0 
L 581 4863 
L 1159 4863 
L 1159 2969 
z
" transform="scale(0.015625)"/>
      <path id="DejaVuSans-43" d="M 4122 4306 
L 4122 3641 
Q 3803 3938 3442 4084 
Q 3081 4231 2675 4231 
Q 1875 4231 1450 3742 
Q 1025 3253 1025 2328 
Q 1025 1406 1450 917 
Q 1875 428 2675 428 
Q 3081 428 3442 575 
Q 3803 722 4122 1019 
L 4122 359 
Q 3791 134 3420 21 
Q 3050 -91 2638 -91 
Q 1578 -91 968 557 
Q 359 1206 359 2328 
Q 359 3453 968 4101 
Q 1578 4750 2638 4750 
Q 3056 4750 3426 4639 
Q 3797 4528 4122 4306 
z
" transform="scale(0.015625)"/>
     </defs>
     <use xlink:href="#DejaVuSans-4d"/>
     <use xlink:href="#DejaVuSans-6f" x="86.279297"/>
     <use xlink:href="#DejaVuSans-6e" x="147.460938"/>
     <use xlink:href="#DejaVuSans-74" x="210.839844"/>
     <use xlink:href="#DejaVuSans-68" x="250.048828"/>
     <use xlink:href="#DejaVuSans-6c" x="313.427734"/>
     <use xlink:href="#DejaVuSans-79" x="341.210938"/>
     <use xlink:href="#DejaVuSans-20" x="400.390625"/>
     <use xlink:href="#DejaVuSans-53" x="432.177734"/>
     <use xlink:href="#DejaVuSans-61" x="495.654297"/>
     <use xlink:href="#DejaVuSans-6c" x="556.933594"/>
     <use xlink:href="#DejaVuSans-65" x="584.716797"/>
     <use xlink:href="#DejaVuSans-73" x="646.240234"/>
     <use xlink:href="#DejaVuSans-20" x="698.339844"/>
     <use xlink:href="#DejaVuSans-62" x="730.126953"/>
     <use xlink:href="#DejaVuSans-79" x="793.603516"/>
     <use xlink:href="#DejaVuSans-20" x="852.783203"/>
     <use xlink:href="#DejaVuSans-43" x="884.570312"/>
     <use xlink:href="#DejaVuSans-6c" x="954.394531"/>
     <use xlink:href="#DejaVuSans-75" x="982.177734"/>
     <use xlink:href="#DejaVuSans-73" x="1045.556641"/>
     <use xlink:href="#DejaVuSans-74" x="1097.65625"/>
     <use xlink:href="#DejaVuSans-65" x="1136.865234"/>
     <use xlink:href="#DejaVuSans-72" x="1198.388672"/>
    </g>
   </g>
   <g id="legend_1">
    <g id="patch_7">
     <path d="M 60.523438 103.70875 
L 100.015625 103.70875 
Q 102.015625 103.70875 102.015625 101.70875 
L 102.015625 29.318125 
Q 102.015625 27.318125 100.015625 27.318125 
L 60.523438 27.318125 
Q 58.523438 27.318125 58.523438 29.318125 
L 58.523438 101.70875 
Q 58.523438 103.70875 60.523438 103.70875 
z
" style="fill: #ffffff; opacity: 0.8; stroke: #cccccc; stroke-linejoin: miter"/>
    </g>
    <g id="text_18">
     <!-- Cluster -->
     <g transform="translate(62.523438 38.916562) scale(0.1 -0.1)">
      <use xlink:href="#DejaVuSans-43"/>
      <use xlink:href="#DejaVuSans-6c" x="69.824219"/>
      <use xlink:href="#DejaVuSans-75" x="97.607422"/>
      <use xlink:href="#DejaVuSans-73" x="160.986328"/>
      <use xlink:href="#DejaVuSans-74" x="213.085938"/>
      <use xlink:href="#DejaVuSans-65" x="252.294922"/>
      <use xlink:href="#DejaVuSans-72" x="313.818359"/>
     </g>
    </g>
    <g id="line2d_44">
     <path d="M 63.088281 50.094687 
L 73.088281 50.094687 
L 83.088281 50.094687 
" style="fill: none; stroke: #1f77b4; stroke-width: 1.5; stroke-linecap: square"/>
     <g>
      <use xlink:href="#m857840ff0f" x="73.088281" y="50.094687" style="fill: #1f77b4; stroke: #1f77b4"/>
     </g>
    </g>
    <g id="text_19">
     <!-- 0 -->
     <g transform="translate(91.088281 53.594687) scale(0.1 -0.1)">
      <use xlink:href="#DejaVuSans-30"/>
     </g>
    </g>
    <g id="line2d_45">
     <path d="M 63.088281 64.772812 
L 73.088281 64.772812 
L 83.088281 64.772812 
" style="fill: none; stroke: #ff7f0e; stroke-width: 1.5; stroke-linecap: square"/>
     <g>
      <use xlink:href="#mf36800add8" x="73.088281" y="64.772812" style="fill: #ff7f0e; stroke: #ff7f0e"/>
     </g>
    </g>
    <g id="text_20">
     <!-- 1 -->
     <g transform="translate(91.088281 68.272812) scale(0.1 -0.1)">
      <use xlink:href="#DejaVuSans-31"/>
     </g>
    </g>
    <g id="line2d_46">
     <path d="M 63.088281 79.450937 
L 73.088281 79.450937 
L 83.088281 79.450937 
" style="fill: none; stroke: #2ca02c; stroke-width: 1.5; stroke-linecap: square"/>
     <g>
      <use xlink:href="#m421726a7ff" x="73.088281" y="79.450937" style="fill: #2ca02c; stroke: #2ca02c"/>
     </g>
    </g>
    <g id="text_21">
     <!-- 2 -->
     <g transform="translate(91.088281 82.950937) scale(0.1 -0.1)">
      <use xlink:href="#DejaVuSans-32"/>
     </g>
    </g>
    <g id="line2d_47">
     <path d="M 63.088281 94.129062 
L 73.088281 94.129062 
L 83.088281 94.129062 
" style="fill: none; stroke: #d62728; stroke-width: 1.5; stroke-linecap: square"/>
     <g>
      <use xlink:href="#m47b5557616" x="73.088281" y="94.129062" style="fill: #d62728; stroke: #d62728"/>
     </g>
    </g>
    <g id="text_22">
     <!-- 3 -->
     <g transform="translate(91.088281 97.629062) scale(0.1 -0.1)">
      <defs>
       <path id="DejaVuSans-33" d="M 2597 2516 
Q 3050 2419 3304 2112 
Q 3559 1806 3559 1356 
Q 3559 666 3084 287 
Q 2609 -91 1734 -91 
Q 1441 -91 1130 -33 
Q 819 25 488 141 
L 488 750 
Q 750 597 1062 519 
Q 1375 441 1716 441 
Q 2309 441 2620 675 
Q 2931 909 2931 1356 
Q 2931 1769 2642 2001 
Q 2353 2234 1838 2234 
L 1294 2234 
L 1294 2753 
L 1863 2753 
Q 2328 2753 2575 2939 
Q 2822 3125 2822 3475 
Q 2822 3834 2567 4026 
Q 2313 4219 1838 4219 
Q 1578 4219 1281 4162 
Q 984 4106 628 3988 
L 628 4550 
Q 988 4650 1302 4700 
Q 1616 4750 1894 4750 
Q 2613 4750 3031 4423 
Q 3450 4097 3450 3541 
Q 3450 3153 3228 2886 
Q 3006 2619 2597 2516 
z
" transform="scale(0.015625)"/>
      </defs>
      <use xlink:href="#DejaVuSans-33"/>
     </g>
    </g>
   </g>
  </g>
 </g>
 <defs>
  <clipPath id="pcd06bef9e9">
   <rect x="53.523438" y="22.318125" width="669.6" height="332.64"/>
  </clipPath>
 </defs>
</svg>
